<svg xmlns="http://www.w3.org/2000/svg" width="200" height="49.564" viewBox="0 0 200 49.564"><g transform="translate(-1.007 -1.009)"><g transform="translate(1.007 1.009)"><path d="M10.684,50.436c-.395,0-.78-.005-1.172-.014a16.44,16.44,0,0,1-2.422-.211,7.624,7.624,0,0,1-2.147-.71,7,7,0,0,1-1.81-1.317,6.894,6.894,0,0,1-1.322-1.809,7.414,7.414,0,0,1-.7-2.147A16.084,16.084,0,0,1,.892,41.8c-.008-.273-.019-1.183-.019-1.183V10.683s.011-.9.019-1.159A16.028,16.028,0,0,1,1.107,7.1a7.458,7.458,0,0,1,.7-2.154A6.963,6.963,0,0,1,3.126,3.133,7.211,7.211,0,0,1,4.943,1.808a7.545,7.545,0,0,1,2.142-.7A16.308,16.308,0,0,1,9.515.891L10.685.875H191.055l1.183.016a16.047,16.047,0,0,1,2.408.211,7.694,7.694,0,0,1,2.165.71,7.248,7.248,0,0,1,3.129,3.136,7.466,7.466,0,0,1,.693,2.137,16.84,16.84,0,0,1,.225,2.445c0,.367,0,.761,0,1.153.01.486.01.948.01,1.415V39.215c0,.471,0,.93-.01,1.393,0,.421,0,.807-.005,1.2a16.5,16.5,0,0,1-.221,2.4,7.436,7.436,0,0,1-.7,2.164,7.1,7.1,0,0,1-1.316,1.8,7.013,7.013,0,0,1-1.813,1.325,7.6,7.6,0,0,1-2.161.712,16.251,16.251,0,0,1-2.422.211c-.38.009-.777.014-1.163.014l-1.4,0Z" transform="translate(-0.873 -0.875)" fill="#111"/><g transform="translate(11.789 10.165)"><path d="M29.145,22.172a6.412,6.412,0,0,1,3.053-5.38A6.564,6.564,0,0,0,27.027,14c-2.176-.228-4.285,1.3-5.394,1.3-1.13,0-2.837-1.279-4.676-1.241a6.887,6.887,0,0,0-5.8,3.535c-2.506,4.339-.637,10.715,1.764,14.222,1.2,1.717,2.6,3.636,4.441,3.568,1.8-.075,2.468-1.146,4.638-1.146,2.149,0,2.779,1.146,4.653,1.1,1.929-.031,3.144-1.725,4.3-3.458a14.2,14.2,0,0,0,1.967-4.007A6.2,6.2,0,0,1,29.145,22.172Z" transform="translate(-9.972 -7.167)" fill="#fff"/><path d="M23,13.243A6.313,6.313,0,0,0,24.441,8.72a6.423,6.423,0,0,0-4.156,2.15A6.007,6.007,0,0,0,18.8,15.226,5.311,5.311,0,0,0,23,13.243Z" transform="translate(-7.364 -8.72)" fill="#fff"/><g transform="translate(32.881 11.857)"><path d="M49.343,34.168V22.326h-.078l-4.85,11.72H42.563L37.7,22.326h-.077V34.168H35.348V18.078h2.889l5.207,12.7h.089l5.2-12.7h2.9v16.09Z" transform="translate(-35.348 -17.81)" fill="#fff"/><path d="M49.4,29.872c0-2.051,1.572-3.29,4.36-3.457l3.211-.178v-.892c0-1.3-.859-2.041-2.321-2.041a2.242,2.242,0,0,0-2.464,1.651H49.931c.067-2.119,2.041-3.624,4.783-3.624,2.8,0,4.65,1.527,4.65,3.835v8.04H57.056v-1.93H57a4.194,4.194,0,0,1-3.7,2.131,3.556,3.556,0,0,1-3.9-3.535Zm7.572-1.059v-.9l-2.889.178c-1.439.09-2.252.714-2.252,1.717,0,1.026.848,1.7,2.141,1.7a2.812,2.812,0,0,0,3-2.688Z" transform="translate(-31.194 -16.848)" fill="#fff"/><path d="M66.786,25.516a2.59,2.59,0,0,0-2.765-2.162c-1.851,0-3.077,1.55-3.077,3.992,0,2.5,1.238,4,3.1,4a2.524,2.524,0,0,0,2.743-2.107h2.319a4.688,4.688,0,0,1-5.084,4.115c-3.346,0-5.531-2.286-5.531-6.01,0-3.647,2.185-6.01,5.508-6.01a4.716,4.716,0,0,1,5.085,4.181Z" transform="translate(-28.504 -16.852)" fill="#fff"/><path d="M81.088,29.819H74.955l-1.473,4.349h-2.6l5.809-16.09h2.7L85.2,34.168H82.56Zm-5.5-2.007h4.862l-2.4-7.058h-.067Z" transform="translate(-24.839 -17.81)" fill="#fff"/><path d="M94.139,27.337c0,3.645-1.951,5.988-4.9,5.988a3.977,3.977,0,0,1-3.691-2.052H85.5v5.81H83.088V21.471h2.331v1.951h.044A4.161,4.161,0,0,1,89.2,21.348C92.176,21.348,94.139,23.7,94.139,27.337Zm-2.475,0c0-2.375-1.227-3.937-3.1-3.937-1.84,0-3.077,1.594-3.077,3.937,0,2.364,1.238,3.947,3.077,3.947,1.873,0,3.1-1.55,3.1-3.947Z" transform="translate(-21.23 -16.843)" fill="#fff"/><path d="M104.1,27.337c0,3.645-1.951,5.988-4.9,5.988a3.977,3.977,0,0,1-3.691-2.052h-.056v5.81H93.053V21.471h2.331v1.951h.044a4.161,4.161,0,0,1,3.735-2.074C102.141,21.348,104.1,23.7,104.1,27.337Zm-2.475,0c0-2.375-1.227-3.937-3.1-3.937-1.84,0-3.077,1.594-3.077,3.937,0,2.364,1.238,3.947,3.077,3.947,1.873,0,3.1-1.55,3.1-3.947Z" transform="translate(-18.284 -16.843)" fill="#fff"/><path d="M108.73,29.746c.178,1.6,1.728,2.643,3.847,2.643,2.03,0,3.49-1.048,3.49-2.486,0-1.249-.881-2-2.966-2.509l-2.085-.5c-2.955-.714-4.326-2.1-4.326-4.338,0-2.776,2.419-4.683,5.855-4.683,3.4,0,5.731,1.907,5.809,4.683h-2.431c-.145-1.606-1.473-2.575-3.413-2.575s-3.267.981-3.267,2.408c0,1.138.848,1.807,2.922,2.319l1.773.435c3.3.781,4.673,2.107,4.673,4.46,0,3.01-2.4,4.9-6.212,4.9-3.568,0-5.978-1.841-6.133-4.751Z" transform="translate(-14.377 -17.871)" fill="#fff"/><path d="M120.745,19.3v2.776h2.231v1.907h-2.231V30.45c0,1,.447,1.473,1.427,1.473a7.525,7.525,0,0,0,.792-.056v1.9a6.613,6.613,0,0,1-1.337.111c-2.375,0-3.3-.892-3.3-3.167V23.983H116.62V22.076h1.706V19.3Z" transform="translate(-11.315 -17.449)" fill="#fff"/><path d="M122.521,27.341c0-3.691,2.174-6.01,5.564-6.01s5.565,2.319,5.565,6.01-2.152,6.01-5.565,6.01S122.521,31.043,122.521,27.341Zm8.675,0c0-2.532-1.16-4.026-3.111-4.026s-3.111,1.506-3.111,4.026c0,2.542,1.16,4.025,3.111,4.025s3.112-1.483,3.112-4.025Z" transform="translate(-9.57 -16.848)" fill="#fff"/><path d="M132.643,21.471h2.3v2H135a2.8,2.8,0,0,1,2.822-2.119,3.714,3.714,0,0,1,.825.09V23.69a3.366,3.366,0,0,0-1.082-.146,2.426,2.426,0,0,0-2.509,2.7V33.2h-2.408Z" transform="translate(-6.576 -16.843)" fill="#fff"/><path d="M148.255,29.761c-.324,2.13-2.4,3.591-5.051,3.591-3.413,0-5.531-2.286-5.531-5.955s2.13-6.066,5.43-6.066c3.246,0,5.287,2.23,5.287,5.786v.825H140.1v.146a3.055,3.055,0,0,0,3.156,3.323,2.654,2.654,0,0,0,2.709-1.65Zm-8.14-3.5h5.865a2.821,2.821,0,0,0-2.877-2.977,2.97,2.97,0,0,0-2.987,2.977Z" transform="translate(-5.089 -16.848)" fill="#fff"/></g></g></g><g transform="translate(46.095 10.807)"><path d="M38.464,8.733A3.42,3.42,0,0,1,42.1,12.575c0,2.47-1.335,3.89-3.638,3.89H35.671V8.733Zm-1.592,6.638h1.458a2.431,2.431,0,0,0,2.55-2.781,2.437,2.437,0,0,0-2.55-2.765H36.872Z" transform="translate(-35.671 -8.352)" fill="#fff"/><path d="M41.684,13.135a2.764,2.764,0,1,1,5.5,0,2.765,2.765,0,1,1-5.5,0Zm4.319,0c0-1.265-.568-2-1.565-2s-1.564.74-1.564,2,.563,2.009,1.564,2.009S46,14.405,46,13.135Z" transform="translate(-33.897 -7.943)" fill="#fff"/><path d="M53.053,16.029H51.859l-1.206-4.3h-.091l-1.2,4.3H48.178l-1.608-5.835h1.168l1.045,4.452h.086l1.2-4.452h1.1l1.2,4.452h.091l1.04-4.452h1.151Z" transform="translate(-32.448 -7.917)" fill="#fff"/><path d="M53.854,10.222h1.108v.927h.086a1.747,1.747,0,0,1,1.741-1.039,1.9,1.9,0,0,1,2.02,2.17v3.777H57.657V12.568c0-.938-.407-1.4-1.259-1.4a1.338,1.338,0,0,0-1.393,1.479v3.413H53.854Z" transform="translate(-30.294 -7.944)" fill="#fff"/><path d="M59.094,8.437h1.151v8.112H59.094Z" transform="translate(-28.744 -8.437)" fill="#fff"/><path d="M61.221,13.135a2.764,2.764,0,1,1,5.5,0,2.765,2.765,0,1,1-5.5,0Zm4.319,0c0-1.265-.568-2-1.565-2s-1.564.74-1.564,2,.563,2.009,1.564,2.009,1.565-.739,1.565-2.009Z" transform="translate(-28.119 -7.943)" fill="#fff"/><path d="M66.4,14.405c0-1.05.782-1.656,2.17-1.742l1.58-.091v-.5c0-.616-.407-.964-1.194-.964-.643,0-1.088.236-1.216.648H66.626c.118-1,1.06-1.645,2.384-1.645,1.463,0,2.288.728,2.288,1.961v3.986H70.189v-.82H70.1a1.963,1.963,0,0,1-1.753.916A1.763,1.763,0,0,1,66.4,14.405Zm3.75-.5v-.488l-1.425.091c-.8.054-1.168.327-1.168.841s.456.831,1.082.831a1.375,1.375,0,0,0,1.511-1.275Z" transform="translate(-26.584 -7.943)" fill="#fff"/><path d="M71.348,13.629c0-1.844.948-3.012,2.422-3.012a1.923,1.923,0,0,1,1.789,1.024h.086v-3.2H76.8v8.112h-1.1v-.922H75.6a2.025,2.025,0,0,1-1.832,1.018C72.285,16.645,71.348,15.477,71.348,13.629Zm1.189,0c0,1.238.583,1.982,1.559,1.982s1.57-.755,1.57-1.977-.606-1.982-1.57-1.982-1.559.75-1.559,1.977Z" transform="translate(-25.121 -8.437)" fill="#fff"/><path d="M79.232,13.135a2.764,2.764,0,1,1,5.5,0,2.765,2.765,0,1,1-5.5,0Zm4.319,0c0-1.265-.568-2-1.565-2s-1.564.74-1.564,2,.563,2.009,1.564,2.009,1.565-.739,1.565-2.009Z" transform="translate(-22.793 -7.943)" fill="#fff"/><path d="M84.669,10.222h1.108v.927h.086a1.747,1.747,0,0,1,1.741-1.039,1.9,1.9,0,0,1,2.02,2.17v3.777H88.473V12.568c0-.938-.407-1.4-1.259-1.4a1.338,1.338,0,0,0-1.393,1.479v3.413H84.669Z" transform="translate(-21.181 -7.944)" fill="#fff"/><path d="M93.99,9.074v1.479h1.264v.97H93.99v3c0,.611.252.879.825.879a3.844,3.844,0,0,0,.439-.027v.959a3.777,3.777,0,0,1-.626.059c-1.281,0-1.79-.45-1.79-1.575v-3.3h-.926v-.97h.926V9.074Z" transform="translate(-19.04 -8.249)" fill="#fff"/><path d="M95.7,8.437h1.141v3.215h.091a1.8,1.8,0,0,1,1.779-1.045,1.922,1.922,0,0,1,2.009,2.175v3.767H99.573V13.066c0-.932-.434-1.4-1.248-1.4a1.363,1.363,0,0,0-1.469,1.479v3.408H95.7Z" transform="translate(-17.918 -8.437)" fill="#fff"/><path d="M105.959,14.48a2.369,2.369,0,0,1-2.528,1.688,2.65,2.65,0,0,1-2.7-3.012,2.691,2.691,0,0,1,2.69-3.048c1.623,0,2.6,1.109,2.6,2.941v.4h-4.12v.065a1.542,1.542,0,0,0,1.554,1.671,1.4,1.4,0,0,0,1.388-.707Zm-4.05-1.88h2.947a1.408,1.408,0,0,0-1.436-1.511,1.492,1.492,0,0,0-1.511,1.511Z" transform="translate(-16.437 -7.943)" fill="#fff"/></g></g></svg>
